REM DIRINDEX 1\2,1\3,1\4,1\5
REM DIRNAME "folder01","folder02","folder03","folder04","folder05"
TITLE ""
FILE "P1Q_t_1020-1029.mp3" MP3
  TRACK 01 AUDIO
    TITLE "0:"
    INDEX 01 00:00:00
  TRACK 02 AUDIO
    TITLE "3:cjc173_4015"
    INDEX 01 00:00:10
  TRACK 03 AUDIO
    TITLE "0:"
    INDEX 01 00:01:27
  TRACK 04 AUDIO
    TITLE "4:cjc173_4016"
    INDEX 01 00:01:49
  TRACK 05 AUDIO
    TITLE "0:"
    INDEX 01 00:03:18
  TRACK 06 AUDIO
    TITLE "5:cjc173_4017"
    INDEX 01 00:03:38
  TRACK 07 AUDIO
    TITLE "0:"
    INDEX 01 00:09:46
  TRACK 08 AUDIO
    TITLE "3:cjc173_4018"
    INDEX 01 00:10:19
  TRACK 09 AUDIO
    TITLE "0:"
    INDEX 01 00:11:24
  TRACK 10 AUDIO
    TITLE "4:cjc173_4019"
    INDEX 01 00:11:45
  TRACK 11 AUDIO
    TITLE "0:"
    INDEX 01 00:13:50
  TRACK 12 AUDIO
    TITLE "5:cjc173_4020"
    INDEX 01 00:13:70
  TRACK 13 AUDIO
    TITLE "0:"
    INDEX 01 00:18:36
  TRACK 14 AUDIO
    TITLE "3:cjc173_4021"
    INDEX 01 00:19:06
  TRACK 15 AUDIO
    TITLE "0:"
    INDEX 01 00:20:05
  TRACK 16 AUDIO
    TITLE "4:cjc173_4022"
    INDEX 01 00:20:27
  TRACK 17 AUDIO
    TITLE "0:"
    INDEX 01 00:21:48
  TRACK 18 AUDIO
    TITLE "5:cjc173_4023"
    INDEX 01 00:21:69
  TRACK 19 AUDIO
    TITLE "0:"
    INDEX 01 00:25:75
  TRACK 20 AUDIO
    TITLE "3:cjc173_4024"
    INDEX 01 00:26:43
  TRACK 21 AUDIO
    TITLE "0:"
    INDEX 01 00:27:50
  TRACK 22 AUDIO
    TITLE "4:cjc173_4025"
    INDEX 01 00:27:72
  TRACK 23 AUDIO
    TITLE "0:"
    INDEX 01 00:30:39
  TRACK 24 AUDIO
    TITLE "5:cjc173_4026"
    INDEX 01 00:30:56
  TRACK 25 AUDIO
    TITLE "0:"
    INDEX 01 00:34:52
  TRACK 26 AUDIO
    TITLE "3:cjc173_4027"
    INDEX 01 00:35:24
  TRACK 27 AUDIO
    TITLE "0:"
    INDEX 01 00:36:41
  TRACK 28 AUDIO
    TITLE "4:cjc173_4028"
    INDEX 01 00:36:61
  TRACK 29 AUDIO
    TITLE "0:"
    INDEX 01 00:39:63
  TRACK 30 AUDIO
    TITLE "5:cjc173_4029"
    INDEX 01 00:40:10
  TRACK 31 AUDIO
    TITLE "0:"
    INDEX 01 00:45:13
  TRACK 32 AUDIO
    TITLE "3:cjc173_4030"
    INDEX 01 00:45:56
  TRACK 33 AUDIO
    TITLE "0:"
    INDEX 01 00:46:65
  TRACK 34 AUDIO
    TITLE "4:cjc173_4031"
    INDEX 01 00:47:14
  TRACK 35 AUDIO
    TITLE "0:"
    INDEX 01 00:48:31
  TRACK 36 AUDIO
    TITLE "5:cjc173_4032"
    INDEX 01 00:48:50
  TRACK 37 AUDIO
    TITLE "0:"
    INDEX 01 00:52:66
  TRACK 38 AUDIO
    TITLE "3:cjc173_4033"
    INDEX 01 00:53:36
  TRACK 39 AUDIO
    TITLE "0:"
    INDEX 01 00:54:49
  TRACK 40 AUDIO
    TITLE "4:cjc173_4034"
    INDEX 01 00:54:71
  TRACK 41 AUDIO
    TITLE "0:"
    INDEX 01 00:56:25
  TRACK 42 AUDIO
    TITLE "5:cjc173_4035"
    INDEX 01 00:56:44
  TRACK 43 AUDIO
    TITLE "0:"
    INDEX 01 00:59:74
  TRACK 44 AUDIO
    TITLE "3:cjc173_4036"
    INDEX 01 01:00:44
  TRACK 45 AUDIO
    TITLE "0:"
    INDEX 01 01:01:63
  TRACK 46 AUDIO
    TITLE "4:cjc173_4037"
    INDEX 01 01:02:09
  TRACK 47 AUDIO
    TITLE "0:"
    INDEX 01 01:03:60
  TRACK 48 AUDIO
    TITLE "5:cjc173_4038"
    INDEX 01 01:04:04
  TRACK 49 AUDIO
    TITLE "0:"
    INDEX 01 01:07:65
  TRACK 50 AUDIO
    TITLE "3:cjc173_4039"
    INDEX 01 01:08:37
  TRACK 51 AUDIO
    TITLE "0:"
    INDEX 01 01:09:66
  TRACK 52 AUDIO
    TITLE "4:cjc173_4040"
    INDEX 01 01:10:11
  TRACK 53 AUDIO
    TITLE "0:"
    INDEX 01 01:13:07
  TRACK 54 AUDIO
    TITLE "5:cjc173_4041"
    INDEX 01 01:13:27
  TRACK 55 AUDIO
    TITLE "0:"
    INDEX 01 01:16:70
  TRACK 56 AUDIO
    TITLE "3:cjc173_4042"
    INDEX 01 01:17:42
  TRACK 57 AUDIO
    TITLE "0:"
    INDEX 01 01:18:67
  TRACK 58 AUDIO
    TITLE "4:cjc173_4043"
    INDEX 01 01:19:12
  TRACK 59 AUDIO
    TITLE "0:"
    INDEX 01 01:24:46
  TRACK 60 AUDIO
    TITLE "5:cjc173_4044"
    INDEX 01 01:24:66
  TRACK 61 AUDIO
    TITLE "0:"
    INDEX 01 01:28:62
